<svg width="24" height="24" viewBox="0 0 24 24" fill="none" xmlns="http://www.w3.org/2000/svg">
<mask id="mask0_32_143" style="mask-type:alpha" maskUnits="userSpaceOnUse" x="0" y="0" width="24" height="24">
<rect width="24" height="24" fill="#D9D9D9"/>
</mask>
<g mask="url(#mask0_32_143)">
<path d="M11.9999 12C10.8999 12 9.95821 11.6084 9.17488 10.825C8.39155 10.0417 7.99988 9.10003 7.99988 8.00003C7.99988 6.90003 8.39155 5.95836 9.17488 5.17503C9.95821 4.3917 10.8999 4.00003 11.9999 4.00003C13.0999 4.00003 14.0415 4.3917 14.8249 5.17503C15.6082 5.95836 15.9999 6.90003 15.9999 8.00003C15.9999 9.10003 15.6082 10.0417 14.8249 10.825C14.0415 11.6084 13.0999 12 11.9999 12ZM3.99988 20V17.2C3.99988 16.6334 4.14571 16.1125 4.43738 15.6375C4.72904 15.1625 5.11654 14.8 5.59988 14.55C6.63321 14.0334 7.68321 13.6459 8.74988 13.3875C9.81655 13.1292 10.8999 13 11.9999 13C13.0999 13 14.1832 13.1292 15.2499 13.3875C16.3165 13.6459 17.3665 14.0334 18.3999 14.55C18.8832 14.8 19.2707 15.1625 19.5624 15.6375C19.854 16.1125 19.9999 16.6334 19.9999 17.2V20H3.99988ZM5.99988 18H17.9999V17.2C17.9999 17.0167 17.954 16.85 17.8624 16.7C17.7707 16.55 17.6499 16.4334 17.4999 16.35C16.5999 15.9 15.6915 15.5625 14.7749 15.3375C13.8582 15.1125 12.9332 15 11.9999 15C11.0665 15 10.1415 15.1125 9.22488 15.3375C8.30821 15.5625 7.39988 15.9 6.49988 16.35C6.34988 16.4334 6.22904 16.55 6.13738 16.7C6.04571 16.85 5.99988 17.0167 5.99988 17.2V18ZM11.9999 10C12.5499 10 13.0207 9.8042 13.4124 9.41253C13.804 9.02086 13.9999 8.55003 13.9999 8.00003C13.9999 7.45003 13.804 6.9792 13.4124 6.58753C13.0207 6.19586 12.5499 6.00003 11.9999 6.00003C11.4499 6.00003 10.979 6.19586 10.5874 6.58753C10.1957 6.9792 9.99988 7.45003 9.99988 8.00003C9.99988 8.55003 10.1957 9.02086 10.5874 9.41253C10.979 9.8042 11.4499 10 11.9999 10Z" fill="#1C1B1F"/>
</g>
</svg>
