<svg width="75" height="71" viewBox="0 0 75 71" fill="none" xmlns="http://www.w3.org/2000/svg">
<path d="M8.484 43.596C6.923 43.596 5.579 43.2543 4.452 42.5709C3.325 41.8806 2.4535 40.9349 1.8375 39.7339C1.2285 38.5328 0.923996 37.1626 0.923996 35.6232C0.923996 34.0839 1.2285 32.7137 1.8375 31.5126C2.4535 30.3116 3.325 29.3693 4.452 28.686C5.579 27.9957 6.923 27.6505 8.484 27.6505C9.135 27.6505 9.737 27.761 10.29 27.9819C10.85 28.2028 11.347 28.5134 11.781 28.9137L13.587 27.8576H13.7865V32.4135H13.5345C13.2895 31.5368 12.9325 30.7637 12.4635 30.0941C12.0015 29.4246 11.4485 28.9034 10.8045 28.5306C10.1675 28.151 9.464 27.9612 8.694 27.9612C7.917 27.9612 7.2625 28.1821 6.7305 28.6238C6.2055 29.0587 5.7855 29.6454 5.4705 30.384C5.1625 31.1157 4.9385 31.9372 4.7985 32.8483C4.6655 33.7526 4.599 34.6776 4.599 35.6232C4.599 36.562 4.6655 37.487 4.7985 38.3982C4.9385 39.3093 5.1625 40.1342 5.4705 40.8728C5.7855 41.6045 6.2055 42.1912 6.7305 42.633C7.2625 43.0679 7.917 43.2853 8.694 43.2853C9.401 43.2853 10.031 43.1714 10.584 42.9436C11.137 42.7089 11.62 42.388 12.033 41.9807C12.446 41.5734 12.796 41.1006 13.083 40.5622C13.37 40.0238 13.594 39.4474 13.755 38.833H13.9965V43.3889H13.7865L12.138 42.2396C11.683 42.6606 11.1475 42.992 10.5315 43.2336C9.9155 43.4752 9.233 43.596 8.484 43.596ZM19.1707 35.4783V35.3333H22.2157C22.8877 35.3333 23.4477 35.2056 23.8957 34.9502C24.3507 34.6879 24.6902 34.291 24.9142 33.7595C25.1452 33.2211 25.2607 32.5412 25.2607 31.7197C25.2607 30.8983 25.1452 30.2184 24.9142 29.68C24.6902 29.1415 24.3507 28.7412 23.8957 28.4789C23.4477 28.2097 22.8877 28.0751 22.2157 28.0751H15.3802V27.8576H22.7407C23.8957 27.8576 24.9142 27.9922 25.7962 28.2614C26.6852 28.5306 27.3782 28.9517 27.8752 29.5246C28.3722 30.0907 28.6207 30.8224 28.6207 31.7197C28.6207 32.6171 28.3862 33.3419 27.9172 33.8941C27.4482 34.4463 26.7762 34.8501 25.9012 35.1055C25.0262 35.354 23.9727 35.4783 22.7407 35.4783H19.1707ZM15.3802 43.3889V43.1714H22.8457V43.3889H15.3802ZM17.4802 43.275V27.9819H20.7457V43.275H17.4802ZM27.8857 43.5442C27.1717 43.5442 26.6082 43.4337 26.1952 43.2129C25.7892 42.9851 25.4882 42.6813 25.2922 42.3017C25.1032 41.922 24.9807 41.4975 24.9247 41.0281C24.8687 40.5518 24.8372 40.0617 24.8302 39.5578C24.8302 39.047 24.8092 38.5569 24.7672 38.0875C24.7322 37.6112 24.6377 37.1833 24.4837 36.8036C24.3297 36.424 24.0742 36.1237 23.7172 35.9028C23.3602 35.675 22.8597 35.5611 22.2157 35.5611H19.1707V35.4265H23.8957C24.8687 35.4265 25.6387 35.568 26.2057 35.851C26.7797 36.1341 27.2067 36.5068 27.4867 36.9693C27.7667 37.4249 27.9487 37.9288 28.0327 38.481C28.1237 39.0332 28.1692 39.5854 28.1692 40.1377C28.1762 40.683 28.1867 41.1869 28.2007 41.6494C28.2147 42.1119 28.2882 42.4846 28.4212 42.7676C28.5612 43.0437 28.8132 43.1818 29.1772 43.1818C29.3942 43.1818 29.6007 43.1576 29.7967 43.1093C29.9997 43.0541 30.1747 42.992 30.3217 42.9229L30.4057 43.1197C30.2377 43.2163 29.9297 43.3095 29.4817 43.3992C29.0337 43.4959 28.5017 43.5442 27.8857 43.5442ZM34.9422 38.4603V38.2325H41.1477V38.4603H34.9422ZM39.8772 27.547L45.3687 43.1714H46.9227V43.3889H39.7302V43.1714H41.5887L37.6407 31.1192L33.3567 43.1714H35.7402V43.3889H31.1097V43.1714H33.0942L38.6697 27.547H39.8772ZM56.2575 38.2532C56.1525 37.7907 55.974 37.3731 55.722 37.0004C55.477 36.6207 55.155 36.3239 54.756 36.1099C54.364 35.889 53.8985 35.7786 53.3595 35.7786H51.984V35.5508H53.3595C53.8985 35.5508 54.364 35.4507 54.756 35.2505C55.155 35.0503 55.477 34.7708 55.722 34.4118C55.974 34.0529 56.1525 33.6421 56.2575 33.1797H56.4885V38.2532H56.2575ZM59.4285 27.8576V32.1028H59.1975C59.0925 31.3642 58.879 30.6912 58.557 30.0838C58.235 29.4694 57.7975 28.9828 57.2445 28.6238C56.6915 28.258 56.023 28.0751 55.239 28.0751H52.8765V43.1714H54.9765V43.3889H47.721V43.1714H49.611V28.0751H47.721V27.8576H59.4285ZM63.4259 43.3889V43.1714H65.7359V28.0751H64.4129C63.8529 28.0751 63.3629 28.1993 62.9429 28.4478C62.5229 28.6894 62.1659 29.0276 61.8719 29.4625C61.5779 29.8974 61.3399 30.4047 61.1579 30.9846C60.9829 31.5575 60.8569 32.1719 60.7799 32.8276H60.5384V27.8576H74.1779V32.8276H73.9469C73.8699 32.1719 73.7404 31.5575 73.5584 30.9846C73.3834 30.4047 73.1489 29.8974 72.8549 29.4625C72.5609 29.0276 72.2039 28.6894 71.7839 28.4478C71.3639 28.1993 70.8739 28.0751 70.3139 28.0751H68.9909V43.1714H71.3009V43.3889H63.4259Z" fill="black"/>
<path d="M20.72 65.2313V63.0939H20.945C20.99 63.4439 21.125 63.762 21.35 64.0479C21.575 64.3339 21.8575 64.5632 22.1975 64.7357C22.5375 64.9083 22.9 64.9946 23.285 64.9946C23.57 64.9946 23.8425 64.9502 24.1025 64.8615C24.3625 64.7727 24.5725 64.6347 24.7325 64.4473C24.8975 64.255 24.98 64.006 24.98 63.7003C24.98 63.3897 24.8825 63.1432 24.6875 62.9607C24.4925 62.7783 24.24 62.6304 23.93 62.517C23.625 62.4036 23.3 62.2927 22.955 62.1842C22.61 62.0757 22.2825 61.9426 21.9725 61.7848C21.6625 61.6221 21.41 61.4101 21.215 61.1488C21.02 60.8825 20.9225 60.5275 20.9225 60.0838C20.9225 59.7682 20.995 59.4625 21.14 59.1667C21.29 58.8708 21.515 58.6268 21.815 58.4345C22.12 58.2422 22.51 58.1461 22.985 58.1461C23.33 58.1461 23.6475 58.2028 23.9375 58.3162C24.2275 58.4296 24.48 58.5775 24.695 58.7599L25.2875 58.1387H25.4825V60.2021H25.2575C25.2425 59.9013 25.135 59.6129 24.935 59.3368C24.74 59.0557 24.475 58.8265 24.14 58.649C23.81 58.4665 23.43 58.3753 23 58.3753C22.745 58.3753 22.515 58.4172 22.31 58.5011C22.105 58.5799 21.94 58.6983 21.815 58.8561C21.69 59.0138 21.6275 59.2037 21.6275 59.4255C21.6275 59.7016 21.73 59.926 21.935 60.0986C22.145 60.2711 22.41 60.419 22.73 60.5423C23.055 60.6656 23.3975 60.7864 23.7575 60.9047C24.1225 61.023 24.4675 61.1685 24.7925 61.3411C25.1175 61.5087 25.38 61.7256 25.58 61.9919C25.785 62.2581 25.8875 62.6008 25.8875 63.0199C25.8875 63.4587 25.7775 63.8458 25.5575 64.1811C25.3425 64.5114 25.0475 64.7703 24.6725 64.9576C24.2975 65.14 23.8725 65.2313 23.3975 65.2313C23.0425 65.2313 22.705 65.1721 22.385 65.0538C22.07 64.9305 21.7925 64.7678 21.5525 64.5656L20.915 65.2313H20.72ZM29.4489 65.1869C29.0389 65.1869 28.7314 65.0981 28.5264 64.9206C28.3214 64.7382 28.1839 64.5139 28.1139 64.2476C28.0489 63.9764 28.0164 63.7053 28.0164 63.4341V56.8C28.2414 56.8 28.4839 56.7532 28.7439 56.6595C29.0039 56.5658 29.2089 56.4647 29.3589 56.3563V63.8482C29.3589 64.218 29.4039 64.4646 29.4939 64.5878C29.5889 64.7111 29.7389 64.7727 29.9439 64.7727C30.1939 64.7727 30.4339 64.6593 30.6639 64.4325C30.8989 64.2057 31.0864 63.9493 31.2264 63.6633L31.4139 63.7743C31.2189 64.1934 30.9589 64.5336 30.6339 64.7949C30.3139 65.0562 29.9189 65.1869 29.4489 65.1869ZM26.9889 58.4937V58.2792H30.9639V58.4937H26.9889ZM35.8602 65.2313C35.1552 65.2313 34.5452 65.0686 34.0302 64.7431C33.5152 64.4177 33.1177 63.9863 32.8377 63.4489C32.5577 62.9114 32.4177 62.3222 32.4177 61.6813C32.4177 61.0403 32.5577 60.4511 32.8377 59.9137C33.1177 59.3762 33.5152 58.9473 34.0302 58.6268C34.5452 58.3014 35.1552 58.1387 35.8602 58.1387C36.5652 58.1387 37.1727 58.3014 37.6827 58.6268C38.1977 58.9473 38.5927 59.3762 38.8677 59.9137C39.1477 60.4511 39.2877 61.0403 39.2877 61.6813C39.2877 62.3222 39.1477 62.9114 38.8677 63.4489C38.5927 63.9863 38.1977 64.4177 37.6827 64.7431C37.1727 65.0686 36.5652 65.2313 35.8602 65.2313ZM35.8602 65.0168C36.2602 65.0168 36.5852 64.9108 36.8352 64.6988C37.0902 64.4818 37.2827 64.2057 37.4127 63.8704C37.5427 63.5302 37.6302 63.1678 37.6752 62.7832C37.7202 62.3937 37.7427 62.0264 37.7427 61.6813C37.7427 61.3312 37.7202 60.9639 37.6752 60.5793C37.6302 60.1947 37.5427 59.8348 37.4127 59.4995C37.2827 59.1593 37.0902 58.8832 36.8352 58.6712C36.5852 58.4542 36.2602 58.3457 35.8602 58.3457C35.4502 58.3457 35.1202 58.4542 34.8702 58.6712C34.6252 58.8832 34.4352 59.1593 34.3002 59.4995C34.1702 59.8348 34.0827 60.1947 34.0377 60.5793C33.9927 60.9639 33.9702 61.3312 33.9702 61.6813C33.9702 62.0264 33.9927 62.3937 34.0377 62.7832C34.0827 63.1678 34.1702 63.5302 34.3002 63.8704C34.4352 64.2057 34.6252 64.4818 34.8702 64.6988C35.1202 64.9108 35.4502 65.0168 35.8602 65.0168ZM42.7166 61.8736C42.7166 61.4347 42.7566 60.9959 42.8366 60.5571C42.9216 60.1133 43.0516 59.709 43.2266 59.3442C43.4016 58.9793 43.6266 58.6884 43.9016 58.4715C44.1766 58.2496 44.5066 58.1387 44.8916 58.1387C45.1666 58.1387 45.4016 58.1929 45.5966 58.3014C45.7966 58.4049 45.9466 58.543 46.0466 58.7155C46.1516 58.8832 46.2041 59.0681 46.2041 59.2702C46.2041 59.5217 46.1266 59.7337 45.9716 59.9063C45.8216 60.0788 45.6141 60.1651 45.3491 60.1651C45.0791 60.1651 44.8641 60.0912 44.7041 59.9432C44.5491 59.7953 44.4716 59.6104 44.4716 59.3886C44.4716 59.1124 44.5641 58.9054 44.7491 58.7673C44.9341 58.6243 45.1341 58.5528 45.3491 58.5528C45.5041 58.5528 45.6466 58.5849 45.7766 58.649C45.9066 58.7131 46.0091 58.7994 46.0841 58.9078C46.1591 59.0114 46.1966 59.1322 46.1966 59.2702H45.9791C45.9791 59.0976 45.9291 58.9423 45.8291 58.8043C45.7341 58.6662 45.6016 58.5578 45.4316 58.4789C45.2666 58.4 45.0791 58.3605 44.8691 58.3605C44.5441 58.3605 44.2541 58.4616 43.9991 58.6638C43.7491 58.8659 43.5391 59.1371 43.3691 59.4773C43.1991 59.8175 43.0691 60.1972 42.9791 60.6163C42.8941 61.0304 42.8516 61.4495 42.8516 61.8736H42.7166ZM42.8516 58.2792V64.8689H43.8716V65.0833H40.5716V64.8689H41.5316V58.4937H40.5716V58.2792H42.8516ZM50.7719 65.2313C50.1269 65.2313 49.5469 65.0907 49.0319 64.8097C48.5169 64.5237 48.1069 64.117 47.8019 63.5894C47.4969 63.0569 47.3444 62.4208 47.3444 61.6813C47.3444 60.9417 47.4894 60.3081 47.7794 59.7805C48.0694 59.248 48.4644 58.8413 48.9644 58.5602C49.4694 58.2792 50.0469 58.1387 50.6969 58.1387C51.4269 58.1387 52.0094 58.2816 52.4444 58.5676C52.8844 58.8536 53.2019 59.2308 53.3969 59.6992C53.5969 60.1627 53.6969 60.6631 53.6969 61.2005H48.3569V60.9861H52.1069C52.1069 60.7247 52.0919 60.4437 52.0619 60.1429C52.0319 59.8372 51.9694 59.5488 51.8744 59.2776C51.7844 59.0064 51.6444 58.7846 51.4544 58.612C51.2694 58.4345 51.0169 58.3457 50.6969 58.3457C50.3319 58.3457 50.0319 58.4394 49.7969 58.6268C49.5669 58.8141 49.3844 59.0656 49.2494 59.3812C49.1194 59.6967 49.0269 60.0542 48.9719 60.4536C48.9219 60.848 48.8969 61.2572 48.8969 61.6813C48.8969 62.1053 48.9244 62.5145 48.9794 62.909C49.0394 63.3034 49.1394 63.6559 49.2794 63.9666C49.4244 64.2772 49.6244 64.5262 49.8794 64.7136C50.1394 64.896 50.4669 64.9872 50.8619 64.9872C51.5619 64.9872 52.1344 64.8072 52.5794 64.4473C53.0244 64.0874 53.3419 63.6387 53.5319 63.1013H53.7794C53.5844 63.7127 53.2394 64.2205 52.7444 64.6248C52.2494 65.0291 51.5919 65.2313 50.7719 65.2313Z" fill="black"/>
<path d="M61 59.6597H75" stroke="black"/>
<path d="M0 59.6597H14" stroke="black"/>
<path d="M16.78 11.9319C16.3567 11.9319 15.975 11.8382 15.635 11.6509C15.295 11.4603 15.025 11.1891 14.825 10.8373C14.625 10.4823 14.525 10.0583 14.525 9.56526C14.525 9.0722 14.6183 8.64982 14.805 8.29811C14.9917 7.94311 15.25 7.67193 15.58 7.48456C15.91 7.2972 16.2883 7.20352 16.715 7.20352C17.195 7.20352 17.5783 7.2972 17.865 7.48456C18.1517 7.67193 18.3567 7.9201 18.48 8.22908C18.6067 8.53806 18.67 8.8717 18.67 9.22998H15.2V9.00318H17.615C17.6117 8.84211 17.6017 8.67118 17.585 8.4904C17.5683 8.30961 17.53 8.13868 17.47 7.97762C17.4133 7.81326 17.325 7.68014 17.205 7.57824C17.085 7.47635 16.9217 7.4254 16.715 7.4254C16.4783 7.4254 16.2833 7.48456 16.13 7.6029C15.98 7.71795 15.8617 7.87572 15.775 8.07623C15.6883 8.27345 15.6283 8.50026 15.595 8.75665C15.565 9.01304 15.55 9.28257 15.55 9.56526C15.55 9.84795 15.5683 10.1175 15.605 10.3739C15.645 10.627 15.7117 10.8521 15.805 11.0494C15.8983 11.2433 16.0283 11.3977 16.195 11.5128C16.365 11.6279 16.5783 11.6854 16.835 11.6854C17.2683 11.6854 17.6217 11.5819 17.895 11.3748C18.1683 11.1644 18.3683 10.8965 18.495 10.5711H18.76C18.63 10.9623 18.4033 11.2877 18.08 11.5473C17.7567 11.8037 17.3233 11.9319 16.78 11.9319ZM19.6894 11.9319V10.4823H19.9244C19.9644 10.7025 20.0544 10.9047 20.1944 11.0888C20.3377 11.2696 20.511 11.4159 20.7144 11.5276C20.921 11.6361 21.1427 11.6903 21.3794 11.6903C21.566 11.6903 21.7394 11.6607 21.8994 11.6016C22.0627 11.5424 22.1944 11.4537 22.2944 11.3353C22.3944 11.217 22.4444 11.0641 22.4444 10.8768C22.4444 10.6697 22.381 10.5053 22.2544 10.3837C22.131 10.2621 21.9694 10.1619 21.7694 10.083C21.5727 10.0041 21.3627 9.92844 21.1394 9.85616C20.9194 9.78056 20.7094 9.69181 20.5094 9.58991C20.3127 9.48472 20.151 9.34503 20.0244 9.17081C19.8977 8.9966 19.8344 8.76816 19.8344 8.48547C19.8344 8.2751 19.881 8.07295 19.9744 7.87901C20.071 7.68179 20.2194 7.52073 20.4194 7.39581C20.6194 7.2709 20.876 7.20845 21.1894 7.20845C21.4127 7.20845 21.6177 7.24461 21.8044 7.31693C21.9944 7.38924 22.161 7.48456 22.3044 7.6029L22.6644 7.20352H22.8694V8.57915H22.6344C22.6144 8.3885 22.541 8.20771 22.4144 8.03679C22.291 7.86586 22.1244 7.72451 21.9144 7.61276C21.7077 7.501 21.4694 7.44512 21.1994 7.44512C21.046 7.44512 20.906 7.47306 20.7794 7.52894C20.656 7.58153 20.556 7.65878 20.4794 7.76068C20.4027 7.85929 20.3644 7.97597 20.3644 8.11075C20.3644 8.28825 20.4294 8.43451 20.5594 8.54956C20.6927 8.66132 20.8627 8.75829 21.0694 8.84047C21.276 8.92264 21.496 9.00482 21.7294 9.087C21.9627 9.16588 22.1827 9.26285 22.3894 9.3779C22.5994 9.48965 22.7694 9.63264 22.8994 9.80686C23.0327 9.9811 23.0994 10.203 23.0994 10.4725C23.0994 10.7651 23.0277 11.0214 22.8844 11.2416C22.741 11.4618 22.546 11.6328 22.2994 11.7544C22.056 11.8728 21.7777 11.9319 21.4644 11.9319C21.241 11.9319 21.0277 11.8925 20.8244 11.8136C20.621 11.7347 20.4394 11.6295 20.2794 11.498L19.8894 11.9319H19.6894ZM25.5341 11.9023C25.2608 11.9023 25.0541 11.8432 24.9141 11.7248C24.7741 11.6033 24.6775 11.4537 24.6241 11.2762C24.5741 11.0954 24.5491 10.9146 24.5491 10.7338V6.31109C24.7025 6.31109 24.8641 6.27986 25.0341 6.21741C25.2075 6.15496 25.3441 6.08757 25.4441 6.01526V10.936C25.4441 11.1825 25.4741 11.3469 25.5341 11.429C25.5975 11.5112 25.7008 11.5523 25.8441 11.5523C25.9941 11.5523 26.1375 11.4882 26.2741 11.36C26.4141 11.2285 26.5275 11.0822 26.6141 10.9212L26.8091 11.0444C26.6725 11.3008 26.5058 11.5079 26.3091 11.6657C26.1125 11.8235 25.8541 11.9023 25.5341 11.9023ZM23.8941 7.52401V7.2972H26.5141V7.52401H23.8941Z" fill="black"/>
<path d="M46.4 11.8334V11.1924L48.655 9.08703C49.065 8.70245 49.3817 8.27677 49.605 7.81002C49.8283 7.33997 49.94 6.87321 49.94 6.40974C49.94 6.05802 49.875 5.74905 49.745 5.4828C49.615 5.21655 49.4367 5.00946 49.21 4.86155C48.9867 4.71034 48.7317 4.63474 48.445 4.63474C48.0983 4.63474 47.7933 4.71363 47.53 4.87141C47.2667 5.0259 47.065 5.24613 46.925 5.5321C46.7883 5.81807 46.7333 6.15663 46.76 6.5478H46.545C46.545 6.46891 46.575 6.39495 46.635 6.32592C46.695 6.25689 46.7733 6.20101 46.87 6.15828C46.9667 6.11555 47.07 6.09418 47.18 6.09418C47.28 6.09418 47.375 6.11719 47.465 6.16321C47.555 6.20594 47.6283 6.2684 47.685 6.35057C47.745 6.43275 47.775 6.53136 47.775 6.64641C47.775 6.77788 47.7467 6.89129 47.69 6.98661C47.6367 7.07865 47.5617 7.15097 47.465 7.20356C47.3717 7.25286 47.2667 7.27752 47.15 7.27752C47.0333 7.27752 46.93 7.24793 46.84 7.18877C46.75 7.1296 46.6783 7.04578 46.625 6.93731C46.5717 6.82884 46.5417 6.699 46.535 6.5478C46.5083 6.12377 46.5767 5.74576 46.74 5.41377C46.9067 5.08177 47.1583 4.82045 47.495 4.62981C47.835 4.43587 48.2533 4.33891 48.75 4.33891C49.22 4.33891 49.6183 4.42766 49.945 4.60516C50.2717 4.77937 50.5183 5.00946 50.685 5.29543C50.855 5.57812 50.94 5.88382 50.94 6.21252C50.94 6.45905 50.91 6.68257 50.85 6.88307C50.7933 7.08358 50.7133 7.26601 50.61 7.43036C50.51 7.59472 50.3967 7.74757 50.27 7.88891C50.1433 8.03025 50.0117 8.16502 49.875 8.29321L47.015 10.9459H50.915V10.2063H51.145V11.8334H46.4ZM54.348 11.8334V11.6065H55.298V5.09328L52.248 9.59981H57.348V9.82168H51.813L55.448 4.43752H56.248V11.6065H56.998V11.8334H54.348ZM57.8253 6.80911V6.57738C58.0053 6.57738 58.1686 6.53629 58.3153 6.45411C58.4653 6.37194 58.592 6.25854 58.6953 6.11391C58.7986 5.96927 58.8736 5.80163 58.9203 5.61099C58.967 5.42034 58.977 5.21655 58.9503 4.9996H59.0253C59.032 5.04891 59.012 5.10479 58.9653 5.16724C58.922 5.22969 58.857 5.28557 58.7703 5.33488C58.687 5.3809 58.5886 5.40391 58.4753 5.40391C58.262 5.40391 58.1036 5.34802 58.0003 5.23627C57.897 5.12122 57.8453 4.98316 57.8453 4.8221C57.8453 4.71363 57.8736 4.61502 57.9303 4.52627C57.9903 4.43752 58.0703 4.36849 58.1703 4.31918C58.2736 4.26659 58.3886 4.2403 58.5153 4.2403C58.6453 4.2403 58.7636 4.27646 58.8703 4.34877C58.977 4.4178 59.0603 4.52298 59.1203 4.66432C59.1836 4.80566 59.2153 4.97988 59.2153 5.18696C59.2153 5.45321 59.162 5.71125 59.0553 5.96106C58.9486 6.20759 58.792 6.41139 58.5853 6.57245C58.3786 6.73023 58.1253 6.80911 57.8253 6.80911Z" fill="black"/>
<path d="M29.1777 0.812683L44.1777 15.4557" stroke="black" stroke-width="0.5"/>
<path d="M28.8223 15.6043L43.8223 0.961297" stroke="black" stroke-width="0.5"/>
</svg>
