<svg width="40" height="40" viewBox="0 0 40 40" fill="none" xmlns="http://www.w3.org/2000/svg">
<mask id="mask0_33_203" style="mask-type:alpha" maskUnits="userSpaceOnUse" x="0" y="0" width="40" height="40">
<rect width="40" height="40" fill="#D9D9D9"/>
</mask>
<g mask="url(#mask0_33_203)">
<path d="M11.0363 15.9025L8.24459 17.4529C7.89487 17.6537 7.53028 17.71 7.15084 17.6217C6.77112 17.5331 6.49723 17.3151 6.32917 16.9679L3.85709 12.69C3.65626 12.3333 3.60223 12.0017 3.69501 11.695C3.78806 11.3883 4.0039 11.1349 4.34251 10.9346L13.0471 5.83333H15.3908C15.7036 5.83333 15.9517 5.92402 16.135 6.10541C16.3186 6.28708 16.4104 6.53263 16.4104 6.84208V7.32249C16.4104 8.34249 16.7565 9.19875 17.4488 9.89125C18.141 10.5835 18.9971 10.9296 20.0171 10.9296C21.0371 10.9296 21.8921 10.5835 22.5821 9.89125C23.2724 9.19875 23.6175 8.34249 23.6175 7.32249V6.84208C23.6175 6.53263 23.7082 6.28708 23.8896 6.10541C24.0713 5.92402 24.3168 5.83333 24.6263 5.83333H26.97L35.6846 10.9346C36.0238 11.1349 36.2352 11.3883 36.3188 11.695C36.4024 12.0017 36.3495 12.3333 36.16 12.69L33.6679 16.9642C33.499 17.3119 33.2033 17.5337 32.7808 17.6296C32.3586 17.7254 31.9904 17.6786 31.6763 17.4892L28.9017 15.8662V32.7092C28.9017 33.1167 28.7578 33.4614 28.47 33.7433C28.1822 34.0256 27.8358 34.1667 27.4308 34.1667H12.49C12.085 34.1667 11.7415 34.0256 11.4596 33.7433C11.1774 33.4614 11.0363 33.1167 11.0363 32.7092V15.9025ZM13.1304 12.3567V32.0725H26.8075V12.3567L32.2242 15.36L34.0042 12.3012L26.5546 7.96166H25.6538C25.4985 9.40166 24.896 10.6053 23.8463 11.5725C22.7963 12.5397 21.5199 13.0233 20.0171 13.0233C18.5143 13.0233 17.237 12.5397 16.185 11.5725C15.1328 10.6053 14.5256 9.40166 14.3633 7.96166H13.4733L6.01292 12.3012L7.79292 15.36L13.1304 12.3567Z" fill="#1C1B1F"/>
</g>
</svg>
