<svg width="40" height="40" viewBox="0 0 40 40" fill="none" xmlns="http://www.w3.org/2000/svg">
<mask id="mask0_33_209" style="mask-type:alpha" maskUnits="userSpaceOnUse" x="0" y="0" width="40" height="40">
<rect width="40" height="40" fill="#D9D9D9"/>
</mask>
<g mask="url(#mask0_33_209)">
<path d="M33.3246 29.0579C34.1565 29.4965 34.8503 29.3794 35.4058 28.7067C35.9614 28.0339 36.0306 27.309 35.6133 26.5321L32.5471 20.7754L30.0471 27.2458L33.3246 29.0579ZM24.4979 27.4275H27.6754L31.735 17.3675C31.9381 16.8597 31.9871 16.4161 31.8821 16.0367C31.7771 15.6575 31.5081 15.3732 31.075 15.1838L27.6796 13.7713C27.2302 13.5713 26.7901 13.5592 26.3596 13.735C25.929 13.9108 25.6951 14.2307 25.6579 14.6946L24.4979 27.4275ZM12.3246 27.4275H15.485L14.3421 14.6304C14.3049 14.2079 14.0849 13.9044 13.6821 13.72C13.2793 13.5356 12.8254 13.5526 12.3204 13.7713L9.01501 15.1388C8.58251 15.3163 8.33362 15.6369 8.26834 16.1008C8.20279 16.565 8.25862 17.035 8.43584 17.5108L12.3246 27.4275ZM6.67543 29.0579L9.95293 27.2458L7.48501 20.7754L4.38668 26.7029C3.95501 27.5321 4.0389 28.2258 4.63834 28.7842C5.23779 29.3425 5.91682 29.4338 6.67543 29.0579ZM17.5792 27.4275H22.4038L23.7479 12.4296C23.7963 11.9871 23.6775 11.6122 23.3917 11.305C23.1056 10.9978 22.7307 10.8442 22.2671 10.8442H17.7329C17.309 10.8442 16.9485 10.9897 16.6513 11.2808C16.3538 11.5722 16.2207 11.9338 16.2521 12.3654L17.5792 27.4275ZM5.72001 31.2821C4.69473 31.2821 3.83237 30.9215 3.13293 30.2004C2.4332 29.4793 2.08334 28.6119 2.08334 27.5983C2.08334 27.2758 2.13237 26.9601 2.23043 26.6513C2.3282 26.3424 2.45015 26.0406 2.59626 25.7458L6.43793 18.3333C6.04848 17.3083 6.00668 16.2936 6.31251 15.2892C6.61834 14.2844 7.2414 13.5813 8.18168 13.1796L11.5771 11.8012C12.0385 11.619 12.5064 11.5192 12.9808 11.5017C13.4553 11.4842 13.887 11.6118 14.2758 11.8846C14.4325 11.0129 14.831 10.2725 15.4713 9.66333C16.1115 9.05444 16.8736 8.75 17.7575 8.75H22.2671C23.1454 8.75 23.9074 9.03444 24.5529 9.60333C25.1985 10.1719 25.6103 10.8847 25.7883 11.7417C26.1567 11.505 26.5751 11.41 27.0438 11.4567C27.5124 11.5033 27.9664 11.6182 28.4058 11.8012L31.8183 13.1796C32.7814 13.5513 33.4296 14.2357 33.7629 15.2329C34.0963 16.2301 34.04 17.2094 33.5942 18.1708L37.4358 25.69C37.5511 25.9564 37.6654 26.2235 37.7788 26.4913C37.8921 26.7588 37.9488 27.0374 37.9488 27.3271C37.9488 28.436 37.5618 29.3724 36.7879 30.1363C36.014 30.9001 35.075 31.2821 33.9708 31.2821C33.6925 31.2821 33.4306 31.235 33.185 31.1408C32.9392 31.0469 32.6888 30.9451 32.4338 30.8354L29.8142 29.5213H10.1625L7.68793 30.8033C7.38098 30.9467 7.06334 31.0622 6.73501 31.15C6.40668 31.2381 6.06834 31.2821 5.72001 31.2821Z" fill="#1C1B1F"/>
</g>
</svg>
