<svg width="40" height="40" viewBox="0 0 40 40" fill="none" xmlns="http://www.w3.org/2000/svg">
<mask id="mask0_33_239" style="mask-type:alpha" maskUnits="userSpaceOnUse" x="0" y="0" width="40" height="40">
<rect width="40" height="40" fill="#D9D9D9"/>
</mask>
<g mask="url(#mask0_33_239)">
<path d="M8.22375 33.6217C7.93347 33.6217 7.68653 33.5197 7.48292 33.3158C7.27931 33.1119 7.1775 32.8649 7.1775 32.5746V30.8633H6.46375C5.35569 30.8633 4.41806 30.4797 3.65083 29.7125C2.88361 28.9453 2.5 28.0076 2.5 26.8996V17.675C2.5 16.435 2.89375 15.4851 3.68125 14.8254C4.46875 14.1654 5.35486 13.8354 6.33958 13.8354V10.6987C6.33958 9.59402 6.70347 8.67791 7.43125 7.95041C8.15875 7.22291 9.07486 6.85916 10.1796 6.85916H29.8375C30.9422 6.85916 31.8556 7.22291 32.5775 7.95041C33.2994 8.67791 33.6604 9.59402 33.6604 10.6987V13.8354C34.691 13.8354 35.5885 14.1735 36.3529 14.8496C37.1176 15.5254 37.5 16.4672 37.5 17.675V26.8996C37.5 28.0076 37.1164 28.9453 36.3492 29.7125C35.5819 30.4797 34.6443 30.8633 33.5363 30.8633H32.8225V32.5746C32.8225 32.8649 32.726 33.1119 32.5329 33.3158C32.3401 33.5197 32.0986 33.6217 31.8083 33.6217C31.5181 33.6217 31.2708 33.5197 31.0667 33.3158C30.8628 33.1119 30.7608 32.8649 30.7608 32.5746V30.8633H9.27125V32.5746C9.27125 32.8651 9.16931 33.1124 8.96542 33.3162C8.76125 33.5199 8.51403 33.6217 8.22375 33.6217ZM6.46375 28.7692H33.5363C34.0499 28.7692 34.4899 28.586 34.8563 28.2196C35.2226 27.8532 35.4058 27.4132 35.4058 26.8996V17.6787C35.4058 17.1699 35.2415 16.7511 34.9129 16.4225C34.5843 16.0939 34.165 15.9296 33.655 15.9296C33.145 15.9296 32.7274 16.0939 32.4021 16.4225C32.0771 16.7511 31.9146 17.1686 31.9146 17.675V24.2521H8.08542V17.675C8.08542 17.1686 7.92292 16.7511 7.59792 16.4225C7.27264 16.0939 6.855 15.9296 6.345 15.9296C5.835 15.9296 5.41569 16.0939 5.08708 16.4225C4.75847 16.7511 4.59417 17.1699 4.59417 17.6787V26.8996C4.59417 27.4132 4.77736 27.8532 5.14375 28.2196C5.51014 28.586 5.95014 28.7692 6.46375 28.7692ZM10.1796 22.1583H29.8204V17.675C29.8204 16.9472 29.9921 16.3149 30.3354 15.7779C30.6788 15.2407 31.089 14.8161 31.5663 14.5042V10.6987C31.5663 10.1851 31.4019 9.76583 31.0733 9.44083C30.7444 9.11555 30.3293 8.95291 29.8279 8.95291H10.1721C9.67069 8.95291 9.25556 9.11555 8.92667 9.44083C8.59806 9.76583 8.43375 10.1851 8.43375 10.6987V14.5042C8.91097 14.8161 9.32125 15.2407 9.66458 15.7779C10.0079 16.3149 10.1796 16.9472 10.1796 17.675V22.1583Z" fill="#1C1B1F"/>
</g>
</svg>
