<svg width="40" height="40" viewBox="0 0 40 40" fill="none" xmlns="http://www.w3.org/2000/svg">
<mask id="mask0_33_245" style="mask-type:alpha" maskUnits="userSpaceOnUse" x="0" y="0" width="40" height="40">
<rect width="40" height="40" fill="#D9D9D9"/>
</mask>
<g mask="url(#mask0_33_245)">
<path d="M33.375 15.625L31.9167 14.1667L33.2521 12.8175C33.359 12.7106 33.4125 12.5903 33.4125 12.4567C33.4125 12.3231 33.359 12.2029 33.2521 12.0962L27.9037 6.74791C27.7971 6.64097 27.6769 6.58749 27.5433 6.58749C27.4097 6.58749 27.2894 6.64097 27.1825 6.74791L25.8333 8.08333L24.3333 6.58333L25.4229 5.45208C25.9871 4.88791 26.6826 4.61277 27.5096 4.62666C28.3365 4.64055 29.0321 4.92958 29.5962 5.49374L34.5062 10.4037C35.0704 10.9679 35.3525 11.6565 35.3525 12.4696C35.3525 13.2826 35.0704 13.9712 34.5062 14.5354L33.375 15.625ZM14.5771 34.4646C14.0129 35.0288 13.3243 35.3108 12.5112 35.3108C11.6982 35.3108 11.0096 35.0288 10.4454 34.4646L5.31748 29.3367C4.81804 28.8303 4.56832 28.2125 4.56832 27.4833C4.56832 26.7544 4.81804 26.1403 5.31748 25.6408L6.62498 24.3333L8.12498 25.8054L6.79165 27.1408C6.68471 27.2478 6.63123 27.3681 6.63123 27.5017C6.63123 27.6353 6.68471 27.7554 6.79165 27.8621L12.1379 33.2083C12.2446 33.3153 12.3647 33.3687 12.4983 33.3687C12.6319 33.3687 12.7522 33.3153 12.8592 33.2083L14.1946 31.875L15.6667 33.375L14.5771 34.4646ZM30.9583 22.3592L33.6571 19.6604C33.764 19.5535 33.8175 19.4306 33.8175 19.2917C33.8175 19.1528 33.764 19.0299 33.6571 18.9229L21.0771 6.34291C20.9701 6.23597 20.8472 6.1825 20.7083 6.1825C20.5694 6.1825 20.4465 6.23597 20.3396 6.34291L17.6408 9.04166C17.5342 9.14861 17.4808 9.26875 17.4808 9.40208C17.4808 9.53569 17.5342 9.65597 17.6408 9.76291L30.2371 22.3592C30.344 22.4658 30.4643 22.5192 30.5979 22.5192C30.7312 22.5192 30.8514 22.4658 30.9583 22.3592ZM19.6604 33.6571L22.3867 30.9325C22.4936 30.8258 22.5471 30.7057 22.5471 30.5721C22.5471 30.4385 22.4936 30.3183 22.3867 30.2117L9.78832 17.6133C9.68165 17.5064 9.56151 17.4529 9.4279 17.4529C9.29429 17.4529 9.17415 17.5064 9.06748 17.6133L6.3429 20.3396C6.23596 20.4465 6.18248 20.5694 6.18248 20.7083C6.18248 20.8472 6.23596 20.9701 6.3429 21.0771L18.9229 33.6571C19.0298 33.764 19.1528 33.8175 19.2917 33.8175C19.4305 33.8175 19.5535 33.764 19.6604 33.6571ZM19.2554 24.1058L24.1312 19.2275L20.7725 15.8687L15.8942 20.7446L19.2554 24.1058ZM21.1271 35.1313C20.629 35.6307 20.0175 35.8804 19.2925 35.8804C18.5675 35.8804 17.959 35.6307 17.4671 35.1313L4.86873 22.5329C4.36929 22.0421 4.11957 21.4342 4.11957 20.7092C4.11957 19.9842 4.36929 19.3721 4.86873 18.8729L7.56748 16.1412C8.0736 15.6418 8.69123 15.3921 9.4204 15.3921C10.1493 15.3921 10.7635 15.6418 11.2629 16.1412L14.3942 19.2725L19.2983 14.3687L16.1667 11.235C15.6675 10.7442 15.4179 10.1336 15.4179 9.40333C15.4179 8.67305 15.6675 8.05819 16.1667 7.55874L18.8812 4.82708C19.3876 4.32763 20.0054 4.07791 20.7346 4.07791C21.4635 4.07791 22.0776 4.32763 22.5771 4.82708L35.1729 17.4229C35.6723 17.9293 35.9221 18.5471 35.9221 19.2762C35.9221 20.0051 35.6723 20.6193 35.1729 21.1187L32.4412 23.8333C31.9432 24.3325 31.329 24.5821 30.5987 24.5821C29.8685 24.5821 29.2572 24.3325 28.765 23.8333L25.6312 20.7017L20.7275 25.6058L23.8587 28.7371C24.3582 29.2435 24.6079 29.8611 24.6079 30.59C24.6079 31.3192 24.3582 31.9333 23.8587 32.4325L21.1271 35.1313Z" fill="#1C1B1F"/>
</g>
</svg>
